<svg xmlns="http://www.w3.org/2000/svg" viewBox="0 0 294.02 378.93">
	<path fill="#000000" d="M99.73 2.17c5.07-.16 12.7.53 20.34 1.61 12.83 1.81 23.52 7.37 31.87 17.31 4.21 5.01 9.19 9.19 15.47 10.98 24.2 6.89 43.33 21.67 61.05 38.66 3.33 3.19 6.82 5.38 11.41 6.54 10.4 2.62 19.37 8.03 26.14 16.43 11.67 14.48 19.77 30.79 24.63 48.8 4 14.82-2.26 26.16-12.39 35.42-6.04 5.52-6.54 10.38-4.72 17.76 9.17 37.2 10.39 74.4-2.87 111.02-9.59 26.48-25.73 47.9-51.64 60.15-35.42 16.74-69.51 11.5-101.69-9.08-27.45-17.56-46.24-42.71-59.87-71.87-2.72-5.82-5.68-9.04-12.6-10.44-31.29-6.33-44.37-37-33.87-60.22 1.33-2.95.97-5.09-1.32-7.4-3.89-3.94-5.86-8.95-6.37-14.38-1.49-15.99-2.9-32.01 5.1-47 .57-1.07.99-2.5.81-3.66-3.26-21.01 4.93-39.93 10.71-59.29 4.21-14.09 8.84-27.94 9.76-42.93.81-13.02 8.78-22.42 20.24-28.54 14.73-7.87 30.73-9.93 49.79-9.86Z" />
	<path fill="#f2f0e4" d="M176.64 378.93c-20.08 0-40.3-6.46-60.47-19.36-25.57-16.36-45.42-40.16-60.66-72.77-2.4-5.13-4.77-7.97-11.08-9.25-15.35-3.1-27.48-12-34.16-25.04-6.15-12.01-6.61-26.28-1.24-38.17.98-2.16.77-3.33-.89-5.01-4.04-4.08-6.39-9.36-6.98-15.69-1.49-15.99-3.03-32.53 5.34-48.21.43-.81.67-1.76.58-2.32-2.77-17.86 2.51-34.31 7.63-50.21 1.06-3.29 2.15-6.68 3.15-10.03.46-1.53.92-3.05 1.38-4.57 3.85-12.73 7.49-24.76 8.3-37.88.79-12.78 8.18-23.25 21.38-30.3C62.35 2.97 77.51-.07 99.7.02c4.85-.14 12.18.43 20.67 1.63 13.58 1.91 24.75 7.99 33.21 18.05 4.61 5.48 9.32 8.85 14.42 10.3 26.43 7.52 46.15 24.03 61.95 39.18 3.3 3.17 6.52 5.02 10.45 6.01 11.21 2.83 20.39 8.6 27.29 17.16 11.62 14.43 20.04 31.11 25.03 49.59 3.74 13.86-.52 26.14-13.01 37.57-5.48 5.01-5.67 9.2-4.08 15.66 10.28 41.7 9.32 78.43-2.94 112.27-10.57 29.17-28.31 49.81-52.74 61.36-14.31 6.76-28.77 10.14-43.3 10.14ZM98.89 4.31c-20.98 0-35.34 2.89-47.93 9.61-8.24 4.4-18.24 12.61-19.11 26.78-.84 13.62-4.72 26.45-8.48 38.86-.46 1.52-.92 3.03-1.37 4.56-1.01 3.39-2.11 6.81-3.18 10.12-5.19 16.14-10.09 31.38-7.47 48.24.33 2.13-.62 4.21-1.04 5-7.77 14.55-6.29 30.43-4.86 45.79.5 5.31 2.43 9.71 5.76 13.07 2.89 2.93 3.45 6.04 1.75 9.8-4.84 10.71-4.42 23.59 1.15 34.45 6.07 11.86 17.15 19.95 31.19 22.79 7.98 1.61 11.32 5.65 14.11 11.64 14.89 31.85 34.21 55.06 59.08 70.97 33.42 21.38 66.94 24.39 99.62 8.95 23.7-11.2 40.23-30.48 50.54-58.94 11.96-33.02 12.88-68.93 2.81-109.78-1.86-7.54-1.61-13.5 5.35-19.86 11.36-10.38 15.09-20.95 11.77-33.28-4.83-17.9-12.99-34.05-24.23-48.01-6.3-7.82-14.71-13.1-25-15.69-4.68-1.18-8.5-3.36-12.37-7.07-15.42-14.79-34.63-30.88-60.15-38.15-5.94-1.69-11.35-5.51-16.53-11.66-7.87-9.36-17.86-14.78-30.53-16.57-8.15-1.15-15.44-1.73-19.97-1.59H98.89Z" />
	<path fill="#f2f0e4" d="M202.88 150.47c5.18.24 14.57 1.18 23.94.98 8.21-.17 12.19 3.51 14.49 10.97 2.02 6.53 2.51 6.36-4.42 5.72-4.89-.45-9.78-.96-14.68-1.22-5.51-.3-9.45 2.94-9.87 7.83-.44 4.99 2.73 8.87 8.25 9.49 8.48.95 16.99 1.7 25.51 2.35 2.62.2 4.28.79 5.06 3.67 10.6 39.18 13.91 78.27-2.76 116.68-14.41 33.2-43.55 51.49-77.37 48.93-21.45-1.63-39.67-11.05-55.71-24.96-21.49-18.63-35.84-42.16-45.82-68.46-2.24-5.89-4.74-7.81-11.25-6.59-9.9 1.85-18.56-1.74-25.08-9.58-6.22-7.48-7.04-17.19-2.46-25.09 5.12-8.83 15.2-13.11 26.55-11.29 9.56 1.54 14.85 6.61 17.05 16.59.59 2.69 1.26 5.52 1.04 8.21-.52 6.34 2.91 8.17 8.36 8.67 16.22 1.51 26.76-7.34 27.58-23.74.33-6.59-.18-13.23-.16-19.84 0-2.26-.17-4.61 2.96-5.59 15.98-4.98 24.1-17.8 30.14-31.96 2.48-5.83 5.1-8.57 11.64-9.24 14.25-1.46 28.49-2.44 47.02-2.55Z" />
	<path fill="#ff4800" d="M203.65 93.82c10.03.41 18.8.41 27.42 2.17 8.2 1.68 15.36 5.19 20.49 12.05a119.701 119.701 0 0 1 17.74 33.85c1.61 4.81.63 6.05-4.35 5.07-23.75-4.67-47.76-6.59-71.94-6.17-57.3 1.02-110.62 14.53-156.84 50.22-1.17.9-2.51 1.63-3.85 2.27-6.35 3.03-8.66 1.84-9.26-5.03-.62-7.02-.8-14.07-.11-21.1.87-8.78 4.88-15.36 13.34-18.7 7.34-2.9 14.69-5.76 22.06-8.56 10.59-4.03 20.9-8.63 30.59-14.52 35.64-21.66 74.87-30.02 114.71-31.56ZM61.26 29.4c-.6 10.83-.78 21.02-1.8 31.13-2.07 20.5 1.16 39.97 10.44 58.35 1.73 3.42 1.51 5.21-2.34 6.66-11.37 4.28-22.65 8.78-33.91 13.33-3.36 1.36-4.19-.42-4.64-3.09-.79-4.73.11-9.35 1.08-13.94 3.73-17.55 10.4-34.24 15.19-51.49 2.34-8.45 4.21-16.94 4.4-25.77.16-7.41 4.44-11.95 11.58-15.19ZM166.31 87.43c-14.01 2.59-27.88 5.76-41.35 10.36-2.71.92-2.75-1.11-3.19-2.66-3.26-11.49-9.61-21.28-16.68-30.71-8.23-10.97-14.72-22.9-19.91-35.6-1.99-4.87-.83-6.03 4.27-6.29 6-.3 9.99.9 13.79 6.32 11.22 15.97 25.04 29.52 41.28 40.56 7.54 5.13 14.68 10.85 22 16.31-.07.57-.14 1.14-.2 1.71ZM72.66 25.1c2.58 3.04 2.99 6.29 4.2 9.16 5.5 12.99 12.25 25.27 20.77 36.54 5.93 7.84 11.21 16.03 14.36 25.47 1.28 3.83 1.1 6.2-3.3 7.84-8.59 3.2-16.61 7.71-24.32 12.66-2.94 1.88-4.33 1.47-5.66-1.68-5.49-12.99-10.7-25.98-9.85-40.54.81-13.82 1.27-27.65 2.03-41.47.13-2.44-.06-5.05 1.76-7.98ZM112.1 23.45c10.12.21 18.56 3.71 25.13 11.75 7.69 9.4 18.02 14.72 29.46 18.28 17.79 5.53 31.49 17.26 46.19 30.59-11.23.35-20.93.09-30.53 1.35-2.19.29-3.42-1.5-4.83-2.74-9.46-8.33-19.54-15.85-29.91-22.99-12.95-8.91-23.76-20.07-33.53-32.28-.9-1.12-2.1-2.19-1.98-3.94ZM251.22 154.35c3.82.69 5.96.89 7.99 1.49 2.85.84 8.29-.16 7.95 2.94-.45 4.14-4.65 7.43-8.96 9.21-2.45 1.01-4.06-.45-5.04-2.61-1.05-2.32-1.94-4.72-3.02-7.03-1.43-3.09-.84-4.48 1.07-3.99Z" />
	<path fill="#000000" d="M185.23 148.69h26.57c0 .18.01.36.02.54h-26.51c-.02-.18-.05-.36-.07-.54ZM153.99 188.27c-5.92.2-9.74-2.15-10.37-7.7-.63-5.59 2.59-8.8 8.06-9.54 9.08-1.22 18.16-2.4 27.27-3.36 5.52-.58 9.28 2.09 9.89 7.62.61 5.55-2.53 8.82-8.03 9.56-9.08 1.22-18.17 2.32-26.82 3.42ZM197.94 299.86c-16.84.07-28.86-5.03-39.04-14.72-2.51-2.39-4.52-5.13-1.76-8.25 2.79-3.16 5.68-1.54 8.26.92 14.49 13.83 31.14 15.25 49.15 8.4 3.36-1.28 6.83-2.71 8.67 1.69 1.87 4.46-1.75 6.03-4.95 7.35-7.36 3.03-15.04 4.65-20.32 4.62ZM246.13 197.59h-23.58c-2.72 0-4.93 2.21-4.93 4.93s2.21 4.93 4.93 4.93h4.56l4.03 12.49a7.242 7.242 0 0 0 9.12 4.67 7.242 7.242 0 0 0 4.67-9.12l-2.59-8.05h3.79c2.72 0 4.93-2.21 4.93-4.93s-2.21-4.93-4.93-4.93ZM188.81 204.96a5.333 5.333 0 0 0-5.86-4.75l-25.35 2.65a5.333 5.333 0 0 0-4.75 5.86 5.333 5.333 0 0 0 5.86 4.75l4.9-.51 5.17 11.72a7.828 7.828 0 0 0 10.33 4 7.828 7.828 0 0 0 4-10.33l-3.13-7.1 4.08-.43a5.333 5.333 0 0 0 4.75-5.86ZM55.9 235.23c.33 1.79.84 3.87 1.09 5.98.31 2.69-.94 4.58-3.55 5.32-2.73.77-4.58-.6-5.61-2.98-.67-1.55-.9-3.28-1.33-4.93-.95-3.66 1.7-9.33-6.58-8.33-3.51.42-3.86-4.42-1.42-7.45 6.08-7.53 22.33-7.11 28.24.59 1.64 2.14 1.93 4.34.3 6.43-1.44 1.85-3.69 2.72-5.67 1.24-6.12-4.6-5.27.19-5.47 4.14ZM215.45 265.34c-7.63-.16-13.92-3.61-19.77-8.1-2.54-1.95-3.54-4.51-1.64-7.23 1.97-2.82 4.64-2.36 7.32-.67 2.87 1.82 5.7 3.81 8.8 5.15 5.28 2.29 10.04 1.68 13.28-3.76 1.97-3.31 4.69-5.63 8.28-2.85 3.24 2.5 1.67 5.69-.32 8.5-3.9 5.53-8.76 9.3-15.95 8.96Z" />
</svg>
