<svg xmlns="http://www.w3.org/2000/svg" viewBox="0 0 349.33 61.85">
	<path fill="#f2f0e4" d="M40.01 0v49.02H29.54v-3.97c-2.38 3.44-6.09 5.17-11.13 5.17-5.48 0-9.91-1.88-13.31-5.63C1.7 40.84 0 36.16 0 30.55c0-5.96 1.8-10.71 5.4-14.24 3.6-3.53 7.87-5.3 12.82-5.3 4.28 0 7.88 1.46 10.8 4.37V0h11ZM11 30.47v.07c0 2.78.88 5.05 2.65 6.79 1.77 1.75 3.95 2.62 6.56 2.62s4.97-.93 6.82-2.78c1.85-1.85 2.72-4.13 2.58-6.82 0-2.61-.91-4.77-2.72-6.49-1.72-1.72-3.91-2.58-6.56-2.58-2.96 0-5.26.94-6.89 2.82s-2.45 4.01-2.45 6.39Zm73.32 3.97H56.96c.22 1.94 1.14 3.51 2.75 4.7 1.61 1.19 3.52 1.79 5.73 1.79 2.87 0 5.1-1.15 6.69-3.44h11.26c-1.77 4.06-4.26 7.2-7.48 9.41-3.09 2.21-6.58 3.31-10.47 3.31-5.3 0-9.87-1.89-13.71-5.66-3.84-3.78-5.76-8.38-5.76-13.81s1.84-9.86 5.53-13.81C55.19 12.98 59.77 11 65.24 11s10.24 1.94 13.91 5.83c4.33 4.64 6.05 10.51 5.17 17.62ZM57.1 26.09h16.43c-.18-1.24-.96-2.52-2.35-3.84-1.39-1.32-3.34-1.99-5.86-1.99s-4.47.66-5.86 1.99-2.18 2.61-2.35 3.84Zm65.44-13.84-13.25 36.76H98.76L85.58 12.25h11.39l7.09 22.92 7.09-22.92h11.39Zm5.1 36.77V0h11v15.17c2.61-2.78 6.16-4.17 10.66-4.17 2.03 0 4.06.38 6.09 1.13 2.03.75 3.96 1.85 5.8 3.31 1.83 1.46 3.32 3.49 4.47 6.09 1.15 2.61 1.72 5.56 1.72 8.88 0 6.27-1.83 11.15-5.5 14.64s-8.01 5.23-13.05 5.23c-2.43 0-4.6-.51-6.52-1.52-1.92-1.02-3.3-2.23-4.14-3.64v3.91h-10.53Zm28.75-18.41v-.07c0-2.47-.85-4.64-2.55-6.49-1.7-1.85-3.85-2.78-6.46-2.78-2.78 0-5 .94-6.66 2.82-1.66 1.88-2.48 4.03-2.48 6.46 0 2.65.83 4.89 2.48 6.72 1.66 1.83 3.81 2.75 6.46 2.75s4.9-.94 6.62-2.82c1.72-1.88 2.58-4.07 2.58-6.59Zm17.09 18.41V12.25h10.33v4.11c.35-.71.71-1.28 1.06-1.72.35-.44.88-.99 1.59-1.66.71-.66 1.62-1.16 2.75-1.49 1.13-.33 2.44-.5 3.94-.5v11.06h-.4c-2.87 0-4.97.56-6.29 1.69s-1.99 2.97-1.99 5.53v19.74h-11Zm21.39-18.42v-.07c0-2.3.42-4.57 1.26-6.82.84-2.25 2.04-4.34 3.61-6.26 1.57-1.92 3.64-3.47 6.23-4.64 2.58-1.17 5.49-1.76 8.71-1.76s6.13.59 8.71 1.76c2.58 1.17 4.66 2.72 6.23 4.64 1.57 1.92 2.77 4.01 3.61 6.26.84 2.25 1.26 4.55 1.26 6.89s-.42 4.64-1.26 6.89c-.84 2.25-2.04 4.34-3.61 6.26-1.57 1.92-3.64 3.47-6.23 4.64-2.58 1.17-5.49 1.76-8.71 1.76s-6.13-.59-8.71-1.76c-2.58-1.17-4.66-2.72-6.23-4.64a21.982 21.982 0 0 1-3.61-6.26c-.84-2.25-1.26-4.55-1.26-6.89Zm11 0v.07c0 2.61.86 4.79 2.58 6.56 1.72 1.77 3.8 2.65 6.23 2.65s4.5-.88 6.23-2.65c1.72-1.77 2.58-3.97 2.58-6.62s-.86-4.86-2.58-6.62c-1.72-1.77-3.8-2.65-6.23-2.65s-4.5.88-6.23 2.65c-1.72 1.77-2.58 3.97-2.58 6.62ZM278.99 0v49.02h-10.47v-3.97c-2.38 3.44-6.09 5.17-11.13 5.17-5.48 0-9.91-1.88-13.31-5.63-3.4-3.75-5.1-8.43-5.1-14.04 0-5.96 1.8-10.71 5.4-14.24 3.6-3.53 7.87-5.3 12.82-5.3 4.28 0 7.88 1.46 10.8 4.37V0h11Zm-29.01 30.47v.07c0 2.78.88 5.05 2.65 6.79 1.77 1.75 3.95 2.62 6.56 2.62s4.97-.93 6.82-2.78 2.72-4.13 2.58-6.82c0-2.61-.91-4.77-2.72-6.49-1.72-1.72-3.91-2.58-6.56-2.58-2.96 0-5.26.94-6.89 2.82s-2.45 4.01-2.45 6.39Zm73.32 3.97h-27.36c.22 1.94 1.14 3.51 2.75 4.7 1.61 1.19 3.52 1.79 5.73 1.79 2.87 0 5.1-1.15 6.69-3.44h11.26c-1.77 4.06-4.26 7.2-7.48 9.41-3.09 2.21-6.58 3.31-10.47 3.31-5.3 0-9.87-1.89-13.71-5.66-3.84-3.78-5.76-8.38-5.76-13.81s1.84-9.86 5.53-13.81c3.69-3.95 8.27-5.93 13.74-5.93s10.24 1.94 13.91 5.83c4.33 4.64 6.05 10.51 5.17 17.62Zm-27.22-8.35h16.43c-.18-1.24-.96-2.52-2.35-3.84s-3.35-1.99-5.86-1.99-4.47.66-5.86 1.99-2.18 2.61-2.35 3.84Zm33.58 22.93V12.25h10.33v4.11c.35-.71.71-1.28 1.06-1.72.35-.44.88-.99 1.59-1.66.71-.66 1.62-1.16 2.75-1.49 1.13-.33 2.44-.5 3.94-.5v11.06h-.4c-2.87 0-4.97.56-6.29 1.69s-1.99 2.97-1.99 5.53v19.74h-11Z" />
	<path fill="#ff4800" d="M0 55.91h40.2v5.94H0z" />
</svg>
