<svg xmlns="http://www.w3.org/2000/svg" viewBox="0 0 180 283.58">
	<path fill="#000000" d="M179.13 0v219.47h-46.86v-17.79c-10.68 15.42-27.29 23.13-49.82 23.13-24.52 0-44.39-8.4-59.61-25.21C7.61 182.79 0 161.83 0 136.72c0-26.69 8.05-47.94 24.17-63.76 16.11-15.82 35.24-23.73 57.39-23.73 19.18 0 35.29 6.53 48.34 19.57V0h49.23ZM49.23 136.43v.3c0 12.46 3.95 22.59 11.86 30.4 7.91 7.81 17.69 11.72 29.36 11.72s22.24-4.15 30.55-12.46c8.3-8.3 12.16-18.48 11.57-30.55 0-11.66-4.06-21.35-12.16-29.07-7.71-7.71-17.5-11.57-29.36-11.57-13.25 0-23.53 4.2-30.84 12.6-7.32 8.41-10.97 17.94-10.97 28.62Z" />
	<path fill="#ff4800" d="M3.23 254.9H180v28.67H3.23z" />
</svg>
