<svg xmlns="http://www.w3.org/2000/svg" viewBox="0 0 477.27 259.21">
	<path fill="#000000" d="M54.66 174.71v66.97h-14.3v-5.43c-3.26 4.71-8.33 7.06-15.2 7.06-7.48 0-13.54-2.56-18.19-7.69C2.32 230.49 0 224.1 0 216.43c0-8.14 2.46-14.63 7.38-19.46s10.75-7.24 17.51-7.24c5.85 0 10.77 1.99 14.75 5.97v-20.99h15.02Zm-39.64 41.63v.09c0 3.8 1.21 6.89 3.62 9.28 2.41 2.38 5.4 3.57 8.96 3.57s6.79-1.27 9.32-3.8c2.53-2.53 3.71-5.64 3.53-9.32 0-3.56-1.24-6.52-3.71-8.87-2.35-2.35-5.34-3.53-8.96-3.53-4.04 0-7.18 1.28-9.41 3.85-2.23 2.57-3.35 5.48-3.35 8.73ZM115.2 221.77H77.83c.3 2.66 1.55 4.8 3.76 6.43 2.2 1.63 4.81 2.44 7.83 2.44 3.92 0 6.97-1.57 9.14-4.71h15.38c-2.41 5.55-5.82 9.83-10.23 12.85-4.22 3.02-8.99 4.52-14.3 4.52-7.24 0-13.48-2.58-18.73-7.74s-7.87-11.45-7.87-18.87 2.52-13.47 7.56-18.87c5.04-5.4 11.3-8.1 18.78-8.1s14 2.66 19 7.96c5.91 6.33 8.26 14.36 7.06 24.07Zm-37.19-11.4h22.44c-.24-1.69-1.31-3.44-3.21-5.25s-4.57-2.71-8.01-2.71-6.11.9-8.01 2.71-2.97 3.56-3.21 5.25ZM167.42 191.45l-18.1 50.23h-14.39l-18.01-50.23h15.57l9.68 31.31 9.68-31.31h15.57ZM174.39 241.68v-66.97h15.02v20.72c3.56-3.8 8.42-5.7 14.57-5.7 2.77 0 5.55.51 8.33 1.54 2.77 1.03 5.41 2.53 7.92 4.52 2.5 1.99 4.54 4.77 6.11 8.33 1.57 3.56 2.35 7.6 2.35 12.13 0 8.57-2.5 15.23-7.51 20s-10.95 7.15-17.83 7.15c-3.32 0-6.29-.69-8.91-2.08-2.62-1.39-4.51-3.05-5.66-4.98v5.34h-14.39Zm39.28-25.16v-.09c0-3.38-1.16-6.33-3.48-8.87-2.32-2.53-5.26-3.8-8.82-3.8-3.8 0-6.83 1.28-9.09 3.85-2.26 2.57-3.39 5.51-3.39 8.82 0 3.62 1.13 6.68 3.39 9.19 2.26 2.5 5.2 3.76 8.82 3.76s6.7-1.28 9.05-3.85c2.35-2.56 3.53-5.57 3.53-9ZM237.01 241.68v-50.23h14.12v5.61c.48-.96.96-1.75 1.45-2.35.48-.6 1.21-1.36 2.17-2.26.96-.9 2.22-1.58 3.76-2.04 1.54-.45 3.33-.68 5.38-.68v15.11h-.54c-3.92 0-6.79.77-8.6 2.31s-2.71 4.06-2.71 7.56v26.97h-15.02ZM266.24 216.52v-.09c0-3.14.57-6.24 1.72-9.32s2.79-5.93 4.93-8.55c2.14-2.62 4.98-4.74 8.51-6.33 3.53-1.6 7.5-2.4 11.9-2.4s8.37.8 11.9 2.4c3.53 1.6 6.36 3.71 8.51 6.33 2.14 2.62 3.78 5.47 4.93 8.55 1.15 3.08 1.72 6.21 1.72 9.41s-.57 6.33-1.72 9.41a30.061 30.061 0 0 1-4.93 8.55c-2.14 2.62-4.98 4.74-8.51 6.33-3.53 1.6-7.5 2.4-11.9 2.4s-8.37-.8-11.9-2.4c-3.53-1.6-6.37-3.71-8.51-6.33-2.14-2.62-3.79-5.47-4.93-8.55-1.15-3.08-1.72-6.21-1.72-9.41Zm15.02 0v.09c0 3.56 1.18 6.55 3.53 8.96 2.35 2.41 5.19 3.62 8.51 3.62s6.15-1.21 8.51-3.62c2.35-2.41 3.53-5.43 3.53-9.05s-1.18-6.64-3.53-9.05c-2.35-2.41-5.19-3.62-8.51-3.62s-6.15 1.21-8.51 3.62c-2.35 2.41-3.53 5.43-3.53 9.05ZM381.17 174.71v66.97h-14.3v-5.43c-3.26 4.71-8.33 7.06-15.2 7.06-7.48 0-13.54-2.56-18.19-7.69-4.65-5.13-6.97-11.52-6.97-19.19 0-8.14 2.46-14.63 7.38-19.46s10.75-7.24 17.51-7.24c5.85 0 10.77 1.99 14.75 5.97v-20.99h15.02Zm-39.64 41.63v.09c0 3.8 1.21 6.89 3.62 9.28 2.41 2.38 5.4 3.57 8.96 3.57s6.79-1.27 9.32-3.8 3.71-5.64 3.53-9.32c0-3.56-1.24-6.52-3.71-8.87-2.35-2.35-5.34-3.53-8.96-3.53-4.04 0-7.18 1.28-9.41 3.85-2.23 2.57-3.35 5.48-3.35 8.73ZM441.71 221.77h-37.37c.3 2.66 1.55 4.8 3.76 6.43 2.2 1.63 4.81 2.44 7.83 2.44 3.92 0 6.97-1.57 9.14-4.71h15.38c-2.41 5.55-5.82 9.83-10.23 12.85-4.22 3.02-8.99 4.52-14.3 4.52-7.24 0-13.48-2.58-18.73-7.74s-7.87-11.45-7.87-18.87 2.52-13.47 7.56-18.87c5.04-5.4 11.3-8.1 18.78-8.1s14 2.66 19 7.96c5.91 6.33 8.26 14.36 7.06 24.07Zm-37.19-11.4h22.44c-.24-1.69-1.31-3.44-3.21-5.25s-4.57-2.71-8.01-2.71-6.11.9-8.01 2.71-2.97 3.56-3.21 5.25ZM450.4 241.68v-50.23h14.12v5.61c.48-.96.96-1.75 1.45-2.35.48-.6 1.21-1.36 2.17-2.26.96-.9 2.22-1.58 3.76-2.04 1.54-.45 3.33-.68 5.38-.68v15.11h-.54c-3.92 0-6.79.77-8.6 2.31s-2.71 4.06-2.71 7.56v26.97h-15.02Z" />
	<path fill="#000000" d="M213.98.96c2.24-.07 5.6.23 8.98.71 5.66.8 10.38 3.25 14.07 7.64 1.86 2.21 4.05 4.06 6.83 4.85 10.68 3.04 19.12 9.56 26.94 17.06 1.47 1.41 3.01 2.38 5.03 2.89 4.59 1.16 8.55 3.54 11.54 7.25 5.15 6.39 8.72 13.59 10.87 21.54 1.77 6.54-1 11.55-5.47 15.63-2.66 2.43-2.89 4.58-2.08 7.84 4.05 16.42 4.59 32.83-1.27 49-4.23 11.69-11.35 21.14-22.79 26.55-15.63 7.39-30.68 5.08-44.88-4.01-12.12-7.75-20.41-18.85-26.42-31.72-1.2-2.57-2.51-3.99-5.56-4.61-13.81-2.79-19.58-16.33-14.95-26.58.59-1.3.43-2.25-.58-3.27-1.72-1.74-2.59-3.95-2.81-6.35-.66-7.06-1.28-14.13 2.25-20.74.25-.47.44-1.1.36-1.61-1.44-9.27 2.18-17.62 4.73-26.17 1.86-6.22 3.9-12.33 4.31-18.95.36-5.75 3.88-9.89 8.93-12.59 6.5-3.47 13.56-4.38 21.97-4.35Z" />
	<path fill="#f2f0e4" d="M247.92 167.24c-8.86 0-17.79-2.85-26.69-8.54-11.29-7.22-20.04-17.72-26.77-32.11-1.06-2.26-2.11-3.52-4.89-4.08-6.77-1.37-12.13-5.3-15.08-11.05-2.71-5.3-2.92-11.6-.55-16.85.43-.95.34-1.47-.39-2.21-1.78-1.8-2.82-4.13-3.08-6.93-.66-7.06-1.34-14.36 2.36-21.28.19-.36.3-.78.26-1.02-1.22-7.88 1.11-15.14 3.37-22.16.47-1.45.95-2.95 1.39-4.43.2-.67.4-1.35.61-2.02 1.7-5.62 3.31-10.93 3.66-16.72.35-5.64 3.61-10.26 9.43-13.37 5.93-3.16 12.62-4.5 22.42-4.47 2.14-.06 5.38.19 9.12.72 5.99.85 10.92 3.53 14.66 7.97 2.03 2.42 4.11 3.91 6.36 4.54 11.67 3.32 20.37 10.6 27.34 17.29 1.46 1.4 2.88 2.21 4.61 2.65 4.95 1.25 9 3.8 12.04 7.57 5.13 6.37 8.85 13.73 11.05 21.88 1.65 6.12-.23 11.54-5.74 16.58-2.42 2.21-2.5 4.06-1.8 6.91 4.54 18.41 4.11 34.61-1.3 49.55-4.66 12.87-12.49 21.98-23.28 27.08-6.32 2.99-12.7 4.48-19.11 4.48ZM213.61 1.9c-9.26 0-15.6 1.27-21.15 4.24-3.63 1.94-8.05 5.57-8.44 11.82-.37 6.01-2.08 11.67-3.74 17.15-.2.67-.41 1.34-.61 2.01-.45 1.5-.93 3-1.4 4.46-2.29 7.12-4.45 13.85-3.3 21.29.15.94-.27 1.86-.46 2.21-3.43 6.42-2.77 13.43-2.14 20.21.22 2.34 1.07 4.29 2.54 5.77 1.28 1.29 1.52 2.66.77 4.32-2.14 4.73-1.95 10.41.51 15.2 2.68 5.23 7.57 8.8 13.77 10.06 3.52.71 4.99 2.49 6.23 5.14 6.57 14.06 15.1 24.3 26.07 31.32 14.75 9.44 29.54 10.76 43.97 3.95 10.46-4.94 17.76-13.45 22.31-26.01 5.28-14.57 5.68-30.42 1.24-48.45-.82-3.33-.71-5.96 2.36-8.76 5.01-4.58 6.66-9.25 5.19-14.69-2.13-7.9-5.73-15.03-10.69-21.19-2.78-3.45-6.49-5.78-11.03-6.93-2.07-.52-3.75-1.48-5.46-3.12-6.81-6.53-15.28-13.63-26.55-16.84-2.62-.75-5.01-2.43-7.29-5.15-3.47-4.13-7.88-6.52-13.47-7.31-3.6-.51-6.81-.76-8.81-.7h-.4Z" />
	<path fill="#f2f0e4" d="M259.51 66.41c2.29.11 6.43.52 10.57.43 3.62-.08 5.38 1.55 6.4 4.84.89 2.88 1.11 2.81-1.95 2.52-2.16-.2-4.32-.42-6.48-.54-2.43-.13-4.17 1.3-4.36 3.46-.19 2.2 1.21 3.91 3.64 4.19 3.74.42 7.5.75 11.26 1.04 1.16.09 1.89.35 2.23 1.62 4.68 17.29 6.14 34.54-1.22 51.5-6.36 14.65-19.22 22.73-34.14 21.59-9.47-.72-17.51-4.88-24.59-11.01-9.49-8.22-15.82-18.61-20.22-30.21-.99-2.6-2.09-3.45-4.97-2.91-4.37.82-8.19-.77-11.07-4.23-2.74-3.3-3.11-7.59-1.09-11.07 2.26-3.9 6.71-5.79 11.72-4.98 4.22.68 6.55 2.92 7.52 7.32.26 1.19.56 2.43.46 3.62-.23 2.8 1.29 3.61 3.69 3.83 7.16.67 11.81-3.24 12.17-10.48.15-2.91-.08-5.84-.07-8.76 0-1-.07-2.04 1.3-2.47 7.05-2.2 10.64-7.85 13.3-14.1 1.1-2.57 2.25-3.78 5.14-4.08 6.29-.64 12.58-1.08 20.75-1.13Z" />
	<path fill="#ff4800" d="M259.85 41.41c4.43.18 8.3.18 12.1.96 3.62.74 6.78 2.29 9.04 5.32 3.41 4.56 6.02 9.53 7.83 14.94.71 2.12.28 2.67-1.92 2.24-10.48-2.06-21.08-2.91-31.75-2.72-25.29.45-48.82 6.41-69.22 22.16-.52.4-1.11.72-1.7 1-2.8 1.34-3.82.81-4.09-2.22-.27-3.1-.36-6.21-.05-9.31.38-3.88 2.15-6.78 5.89-8.25 3.24-1.28 6.48-2.54 9.74-3.78 4.67-1.78 9.22-3.81 13.5-6.41 15.73-9.56 33.04-13.25 50.62-13.93ZM197 12.98c-.26 4.78-.34 9.28-.79 13.74-.91 9.05.51 17.64 4.61 25.75.76 1.51.67 2.3-1.03 2.94-5.02 1.89-10 3.88-14.97 5.88-1.48.6-1.85-.18-2.05-1.36-.35-2.09.05-4.13.48-6.15 1.65-7.75 4.59-15.11 6.7-22.72 1.03-3.73 1.86-7.48 1.94-11.37.07-3.27 1.96-5.27 5.11-6.7ZM243.36 38.59c-6.18 1.14-12.3 2.54-18.25 4.57-1.2.41-1.21-.49-1.41-1.17-1.44-5.07-4.24-9.39-7.36-13.55-3.63-4.84-6.5-10.11-8.79-15.71-.88-2.15-.36-2.66 1.88-2.77 2.65-.13 4.41.4 6.09 2.79 4.95 7.05 11.05 13.03 18.22 17.9 3.33 2.26 6.48 4.79 9.71 7.2l-.09.75ZM202.04 11.08c1.14 1.34 1.32 2.77 1.85 4.04 2.43 5.73 5.41 11.15 9.17 16.13 2.62 3.46 4.95 7.07 6.34 11.24.56 1.69.49 2.74-1.46 3.46-3.79 1.41-7.33 3.4-10.73 5.59-1.3.83-1.91.65-2.5-.74-2.42-5.73-4.72-11.47-4.35-17.89.36-6.1.56-12.2.89-18.3.06-1.08-.03-2.23.78-3.52ZM219.44 10.35c4.47.09 8.19 1.64 11.09 5.18 3.39 4.15 7.95 6.5 13 8.07 7.85 2.44 13.9 7.62 20.39 13.5-4.96.15-9.24.04-13.47.6-.97.13-1.51-.66-2.13-1.21-4.17-3.68-8.62-7-13.2-10.15-5.71-3.93-10.48-8.86-14.8-14.25-.4-.5-.93-.97-.87-1.74ZM280.84 68.12c1.68.3 2.63.39 3.53.66 1.26.37 3.66-.07 3.51 1.3-.2 1.82-2.05 3.28-3.95 4.06-1.08.45-1.79-.2-2.22-1.15-.46-1.03-.86-2.08-1.33-3.1-.63-1.36-.37-1.98.47-1.76Z" />
	<path fill="#000000" d="M251.71 65.62h11.72v.24h-11.7l-.03-.24ZM237.93 83.09c-2.61.09-4.3-.95-4.58-3.4-.28-2.47 1.14-3.88 3.56-4.21 4.01-.54 8.01-1.06 12.03-1.48 2.44-.26 4.1.92 4.36 3.36.27 2.45-1.11 3.89-3.54 4.22-4.01.54-8.02 1.03-11.83 1.51ZM257.33 132.34c-7.43.03-12.74-2.22-17.23-6.5-1.11-1.05-1.99-2.27-.78-3.64 1.23-1.39 2.51-.68 3.64.41 6.39 6.1 13.74 6.73 21.69 3.71 1.48-.56 3.01-1.19 3.83.75.83 1.97-.77 2.66-2.19 3.24-3.25 1.34-6.64 2.05-8.97 2.04ZM278.59 87.2h-10.41c-1.2 0-2.18.97-2.18 2.18s.97 2.18 2.18 2.18h2.01l1.78 5.51a3.193 3.193 0 1 0 6.08-1.96l-1.14-3.55h1.67c1.2 0 2.18-.97 2.18-2.18s-.97-2.18-2.18-2.18ZM253.3 90.46a2.365 2.365 0 0 0-2.59-2.1l-11.19 1.17a2.365 2.365 0 0 0-2.1 2.59 2.365 2.365 0 0 0 2.59 2.1l2.16-.23 2.28 5.17a3.457 3.457 0 0 0 4.56 1.77 3.457 3.457 0 0 0 1.77-4.56l-1.38-3.13 1.8-.19a2.365 2.365 0 0 0 2.1-2.59ZM194.64 103.81c.15.79.37 1.71.48 2.64.14 1.19-.42 2.02-1.57 2.35-1.2.34-2.02-.27-2.47-1.32-.29-.68-.4-1.45-.59-2.17-.42-1.61.75-4.12-2.9-3.68-1.55.19-1.71-1.95-.63-3.29 2.68-3.32 9.85-3.14 12.46.26.72.94.85 1.91.13 2.84-.64.82-1.63 1.2-2.5.55-2.7-2.03-2.33.09-2.41 1.83ZM265.05 117.1c-3.37-.07-6.14-1.59-8.73-3.58-1.12-.86-1.56-1.99-.72-3.19.87-1.25 2.05-1.04 3.23-.29 1.27.8 2.52 1.68 3.88 2.28 2.33 1.01 4.43.74 5.86-1.66.87-1.46 2.07-2.49 3.66-1.26 1.43 1.11.74 2.51-.14 3.75-1.72 2.44-3.87 4.1-7.04 3.95Z" />
	<path fill="#ff4800" d="M0 251.1h54.92v8.11H0z" />
</svg>
