<svg xmlns="http://www.w3.org/2000/svg" xml:space="preserve" viewBox="0 0 100 100">
	<path fill="#fff" stroke="#000" stroke-linejoin="round" stroke-width="39.837" d="M431.462 746.88c-9.912 0-17.313 7.778-22.206 23.336-3.764 11.793-5.647 26.033-5.647 42.72 0 17.44 2.007 32.307 6.022 44.603 2.886 9.033 6.462 15.369 10.728 19.007 4.391 3.513 8.846 5.27 13.363 5.27 9.158 0 15.934-5.458 20.325-16.373 1.882-4.517 3.136-9.095 3.763-13.738.125-2.007-.44-3.764-1.694-5.27-1.129-1.63-2.696-2.572-4.703-2.823-2.008-.25-3.764.25-5.27 1.505-1.506 1.255-2.384 2.885-2.635 4.893-.25 1.882-.754 4.078-1.507 6.588-.627 2.509-1.756 4.954-3.387 7.338-1.506 2.384-3.136 3.576-4.892 3.576-1.255 0-2.574-.689-3.954-2.069-1.38-1.505-2.696-3.576-3.95-6.21-1.255-2.635-2.448-5.771-3.577-9.41-1.003-3.638-1.882-7.842-2.634-12.61-.628-4.768-1.068-9.787-1.319-15.056 10.79-2.635 19.322-8.907 25.595-18.819 6.023-9.66 8.658-20.074 7.905-31.24-.502-7.653-2.636-13.738-6.4-18.255-3.638-4.642-8.28-6.963-13.926-6.963zm213.12 0a7.092 7.092 0 0 0-2.823.564 7.115 7.115 0 0 0-2.257 1.505c-.628.627-1.13 1.442-1.507 2.446a6.64 6.64 0 0 0-.564 2.635l1.13 120.634c0 2.007.688 3.7 2.068 5.08 1.506 1.38 3.2 2.072 5.081 2.072h.189a7.256 7.256 0 0 0 3.576-.941c1.13-.753 2.007-1.631 2.635-2.635.627-1.13.94-2.385.94-3.765l-.94-96.92a27.28 27.28 0 0 1 1.505-3.575c.753-1.254 1.757-2.7 3.012-4.33 1.254-1.757 2.76-3.136 4.517-4.14 1.756-1.13 3.637-1.694 5.645-1.694h.188c1.506 0 2.698.251 3.576.753.878.376 1.443.816 1.694 1.318.376.502.816 1.317 1.318 2.446l.187.378c.753 1.882 2.008 3.198 3.764 3.95 1.882.754 3.702.754 5.459 0 1.882-.752 3.198-2.007 3.95-3.764.879-1.882.942-3.763.19-5.644l-.19-.378c-3.638-9.033-10.287-13.549-19.948-13.549h-.188c-5.52.126-10.538 1.819-15.055 5.081v-.377a7.094 7.094 0 0 0-.565-2.822 7.124 7.124 0 0 0-1.505-2.26 7.123 7.123 0 0 0-2.26-1.504 7.082 7.082 0 0 0-2.821-.564zm211.532 0c-9.912 0-17.313 7.778-22.206 23.336-3.764 11.793-5.647 26.033-5.647 42.72 0 17.44 2.007 32.307 6.022 44.603 2.886 9.033 6.462 15.369 10.728 19.007 4.39 3.513 8.845 5.27 13.362 5.27 9.16 0 15.935-5.458 20.326-16.373 1.882-4.517 3.135-9.095 3.762-13.738.126-2.007-.439-3.764-1.693-5.27-1.13-1.63-2.696-2.572-4.704-2.823-2.007-.25-3.764.25-5.27 1.505-1.505 1.255-2.383 2.885-2.634 4.893-.251 1.882-.754 4.078-1.507 6.588-.628 2.509-1.756 4.954-3.387 7.338-1.506 2.384-3.136 3.576-4.893 3.576-1.254 0-2.573-.689-3.953-2.069-1.38-1.505-2.697-3.576-3.951-6.21-1.255-2.635-2.447-5.771-3.576-9.41-1.004-3.638-1.882-7.842-2.635-12.61-.627-4.768-1.065-9.787-1.316-15.056 10.79-2.635 19.32-8.907 25.593-18.819 6.022-9.66 8.657-20.074 7.904-31.24-.501-7.653-2.635-13.738-6.399-18.255-3.638-4.642-8.28-6.963-13.926-6.963zm46.11 0a7.092 7.092 0 0 0-2.824.564 7.123 7.123 0 0 0-2.26 1.505c-.627.627-1.128 1.442-1.505 2.446a6.641 6.641 0 0 0-.563 2.635l1.127 120.634c0 2.007.691 3.7 2.071 5.08 1.506 1.38 3.2 2.072 5.081 2.072h.189a7.256 7.256 0 0 0 3.576-.941c1.129-.753 2.007-1.631 2.634-2.635.628-1.13.942-2.385.942-3.765l-.942-96.92c.377-1.13.878-2.32 1.505-3.575.753-1.254 1.758-2.7 3.012-4.33 1.255-1.757 2.761-3.136 4.518-4.14 1.756-1.13 3.637-1.694 5.644-1.694h.189c1.506 0 2.698.251 3.576.753.878.376 1.443.816 1.694 1.318.376.502.814 1.317 1.316 2.446l.189.378c.752 1.882 2.008 3.198 3.764 3.95 1.882.754 3.702.754 5.458 0 1.882-.752 3.199-2.007 3.951-3.764.879-1.882.942-3.763.19-5.644l-.19-.378c-3.638-9.033-10.287-13.549-19.948-13.549h-.189c-5.52.126-10.54 1.819-15.056 5.081v-.377a7.082 7.082 0 0 0-.564-2.822 7.124 7.124 0 0 0-1.505-2.26 7.123 7.123 0 0 0-2.26-1.504 7.082 7.082 0 0 0-2.82-.564zm-388.278 1.446c-1.62-.055-3.143.466-4.57 1.564-1.506 1.13-2.447 2.698-2.824 4.706-1.882 14.804-4.453 32.62-7.715 53.448-2.384 15.306-4.579 27.914-6.586 37.826-3.89-23.336-7.967-53.51-12.233-90.522 0-.753-.126-1.38-.377-1.882a7.364 7.364 0 0 0-.942-1.694 6.554 6.554 0 0 0-1.316-1.318 7.359 7.359 0 0 0-1.694-.94 6.717 6.717 0 0 0-1.693-.565 4.753 4.753 0 0 0-1.882 0c-2.008.25-3.64 1.192-4.895 2.823-1.254 1.506-1.756 3.2-1.505 5.081a2859.35 2859.35 0 0 0 7.53 58.718c2.383 17.063 4.451 30.551 6.208 40.463 1.13 6.022 2.134 10.664 3.012 13.926.376 1.255.69 2.32.941 3.199.377.753.941 1.818 1.694 3.199.753 1.254 1.694 2.196 2.823 2.823 1.13.627 2.446.941 3.951.941 1.506 0 2.824-.314 3.954-.941 1.129-.627 2.068-1.569 2.821-2.823.753-1.255 1.317-2.258 1.694-3.01.376-.879.753-1.947 1.13-3.201 1.003-3.388 2.132-8.091 3.387-14.113 2.133-9.912 4.58-23.463 7.34-40.652a2010.382 2010.382 0 0 0 8.657-58.904c.25-2.007-.25-3.764-1.505-5.27-1.13-1.63-2.698-2.572-4.706-2.823a7.118 7.118 0 0 0-.7-.059zm-167.066.847a36.873 36.873 0 0 0-4.057.153c-3.764.251-6.085 2.635-6.964 7.152-.25 1.13-.44 2.633-.565 4.515-.251 3.262-.376 7.904-.376 13.926 0 9.787.188 23.275.564 40.463.377 20.2.941 39.773 1.694 58.718l.188.564c0 1.756.691 3.262 2.071 4.517 1.38 1.255 3.01 1.882 4.893 1.882h.377c10.915-.376 20.576-5.208 28.982-14.492 6.901-7.653 11.918-17.251 15.055-28.794 3.136-11.668 4.204-24.653 3.2-38.956-1.129-17.063-7.026-30.111-17.69-39.144-4.392-3.764-9.411-6.525-15.057-8.282-4.14-1.411-8.245-2.152-12.315-2.222zm458.609.342c-1.882 0-3.575.689-5.081 2.069-1.38 1.38-2.069 3.073-2.069 5.08v58.53c-7.026-.126-13.55.942-19.573 3.2-7.528 2.886-13.299 7.277-17.314 13.174-3.011 4.266-4.643 8.845-4.894 13.738-.251 4.893.817 9.472 3.2 13.738 3.137 5.52 8.03 9.785 14.68 12.796 6.774 3.012 14.867 4.58 24.276 4.706.377 1.631 1.192 2.95 2.447 3.953a8.25 8.25 0 0 0 4.517 1.317c1.882 0 3.514-.691 4.894-2.071 1.505-1.38 2.257-3.074 2.257-5.081v-118c0-2.007-.752-3.7-2.257-5.08-1.38-1.38-3.076-2.07-5.083-2.07zm-223.13.175c-.83-.024-1.67-.02-2.516.011-3.764.126-6.275 2.26-7.53 6.4-.376 1.254-.687 2.885-.938 4.892-.377 3.262-.69 7.904-.942 13.926-.501 9.912-.754 23.4-.754 40.463 0 19.322.19 38.832.566 58.53v.94c0 .125.063.312.188.563 0 .251.062.44.187.566v.187c1.004 3.137 3.2 4.769 6.588 4.894h3.01c9.41 0 17.565-1.569 24.466-4.705 7.026-3.137 12.295-7.59 15.808-13.361 2.76-4.391 4.142-9.096 4.142-14.115s-1.255-9.787-3.764-14.304c-3.513-6.147-8.846-10.977-15.998-14.49a37.827 37.827 0 0 0-5.645-2.26c6.148-2.885 10.851-7.024 14.114-12.419 3.262-5.52 4.767-11.668 4.517-18.443-.126-6.775-1.944-13.113-5.457-19.01-3.387-5.897-7.968-10.475-13.74-13.738-5.05-2.854-10.483-4.364-16.301-4.528zm139.008 1.518c-9.536 0-16.75 7.779-21.643 23.336-3.889 12.045-5.96 26.222-6.21 42.532-.251 15.934 1.316 29.422 4.703 40.463 4.643 14.805 12.046 22.332 22.208 22.583.126.126.313.189.564.189 7.528 0 13.676-3.954 18.444-11.858 4.642-7.653 7.654-18.443 9.034-32.37 1.38-13.926 1.066-27.663-.941-41.213-1.882-13.55-4.957-24.09-9.223-31.617-4.517-8.03-10.161-12.045-16.936-12.045zM431.462 761.37c1.631 0 2.95 1.192 3.953 3.576 1.13 2.259 1.82 4.957 2.071 8.093.376 6.65-1.13 13.362-4.517 20.137-3.262 6.65-8.218 11.292-14.868 13.927.251-9.285 1.19-17.566 2.822-24.843 1.63-7.402 3.388-12.735 5.27-15.997 1.881-3.262 3.638-4.893 5.269-4.893zm424.652 0c1.63 0 2.95 1.192 3.953 3.576 1.129 2.259 1.82 4.957 2.07 8.093.377 6.65-1.129 13.362-4.516 20.137-3.262 6.65-8.218 11.292-14.868 13.927.251-9.285 1.19-17.566 2.822-24.843 1.63-7.402 3.387-12.735 5.27-15.997 1.881-3.262 3.638-4.893 5.269-4.893zm-506.517 2.446c5.772.753 10.915 3.011 15.432 6.775 7.527 6.524 11.731 16.248 12.61 29.171.752 12.17-.126 23.211-2.635 33.123-2.51 9.911-6.524 17.879-12.044 23.901-3.513 4.015-7.403 6.837-11.67 8.469-1.881-52.57-2.446-86.383-1.693-101.439zm235.89.753c6.274 1.255 11.105 4.768 14.493 10.54 2.133 3.763 3.262 7.716 3.387 11.857.251 4.14-.564 7.777-2.446 10.914-3.137 5.395-8.72 8.531-16.75 9.41.126-21.204.564-35.444 1.317-42.721zm135.88.941c1.129 0 2.571 1.57 4.328 4.706 1.631 3.01 3.074 6.899 4.328 11.667 1.38 4.767 2.446 10.1 3.2 15.997.877 5.771 1.379 11.793 1.504 18.066.251 9.66-.313 18.57-1.694 26.725-1.38 8.03-3.324 14.115-5.833 18.255-2.007 3.388-4.141 5.018-6.4 4.892-2.258-.125-4.39-2.132-6.397-6.022-2.007-4.015-3.64-9.786-4.894-17.313-1.255-7.654-1.756-16.06-1.505-25.218.25-14.93 2.07-27.665 5.458-38.204 1.004-3.387 2.133-6.148 3.387-8.281 1.255-2.259 2.197-3.701 2.824-4.329.753-.627 1.317-.94 1.694-.94zm-137.384 63.987c12.17 1.004 20.262 5.082 24.277 12.233 2.76 4.642 2.76 9.221 0 13.738-3.89 6.524-11.794 10.225-23.713 11.103a3952.76 3952.76 0 0 1-.564-37.074zm212.136.148c.727-.004 1.467.01 2.22.04v32.557c-13.675-.25-22.334-3.7-25.972-10.35-2.259-3.89-1.945-7.967.94-12.233 2.008-3.011 5.146-5.456 9.412-7.338 3.842-1.757 8.309-2.649 13.4-2.676z" font-family="Cream Cake" font-size="187.079" font-weight="400" paint-order="stroke fill markers" style="-inkscape-font-specification:&quot;Cream Cake&quot;" transform="translate(-48.462 -48.175) scale(.15385)" />
	<path fill="#fff" stroke="#fff" stroke-linejoin="round" stroke-width="4.615" d="M80.875 23.358c-1.006-.041-2.725.058-5.55.323-8.253.765-10.785 1.283-15.505 3.143-2.685 1.06-3.156 1.39-3.462 2.39-.541 1.766-.117 3.709 1.507 6.887 2.496 4.91 4.862 7.676 7.794 9.1 1.436.695 3.367 1.225 5.392 1.484.918.106 4.567-.035 5.65-.224 1.59-.282 3.803-.942 4.592-1.366 2.649-1.412 4.356-4.296 5.203-8.758.353-1.907.4-6.487.06-7.711-.719-2.696-2.544-4.627-4.898-5.18a4.406 4.406 0 0 0-.783-.088zm-52.421 6.008c-2.936.03-6.385.422-11.793 1.261-3.249.506-3.437.553-4.238.93-1.707.812-2.931 2.378-3.426 4.368-.27 1.06-.188 3.013.189 4.65.953 4.203 2.578 7.523 4.709 9.665 1.471 1.484 3.037 2.272 4.92 2.52 1.296.164 4.298.046 5.91-.236 3.509-.6 6.675-2.025 8.76-3.956 2.107-1.942 3.743-5.238 4.885-9.877.565-2.284.66-2.884.66-4.132 0-1.377-.166-2.154-.625-3.037-.624-1.166-1.024-1.319-4.909-1.837a34.59 34.59 0 0 0-5.042-.32z" paint-order="stroke fill markers" />
	<path d="M18.253 56.337c-.965-.153-2.401-.553-3.155-.883-4.474-1.943-8.04-7.276-9.383-14.033-.2-.989-.494-2.166-.659-2.637-.494-1.39-1.448-2.272-2.472-2.272a1.11 1.11 0 0 1-.683-.26c-.27-.246-.341-.517-.718-2.86-.483-2.908-.506-3.308-.26-3.555.283-.283 12.574-2.437 18.578-3.261 6.322-.871 9.242-1 13.762-.612 10.82.906 12.75 1.012 14.045.788 1.012-.176 3.543-.93 7.558-2.248 8.335-2.731 9.088-2.943 11.843-3.414 4.391-.73 10.56-1.272 21.344-1.884 4.108-.224 4.426-.212 4.615.224.106.27.47 5.592.4 5.921-.047.189-.283.377-.824.648-.424.212-.918.553-1.095.765-.636.754-.706 1.248-.73 4.862-.023 3.402-.141 4.639-.647 6.828-.777 3.332-2.308 6.193-4.274 8.03-1.483 1.377-2.908 2.154-5.097 2.79-5.357 1.541-10.631 1.424-15.175-.342-2.578-.989-4.745-2.637-6.699-5.05-1.577-1.955-2.613-3.65-4.356-7.111-1.577-3.108-2.766-4.533-4.544-5.369-.565-.27-.977-.364-1.59-.4-1.165-.059-1.965.26-2.954 1.177-1.472 1.39-2.12 2.732-2.884 6.028-1.448 6.251-3.108 9.783-5.863 12.561-2.602 2.614-6.228 4.403-10.584 5.24-1.4.27-1.978.317-4.38.34-1.518.024-2.919.012-3.119-.011zm6.475-3.814c3.508-.6 6.675-2.025 8.759-3.956 2.107-1.943 3.744-5.239 4.885-9.877.566-2.284.66-2.885.66-4.132 0-1.378-.165-2.155-.624-3.038-.624-1.165-1.024-1.318-4.91-1.836-4.544-.6-8.181-.4-16.834.941-3.25.507-3.438.554-4.238.93-1.707.813-2.932 2.379-3.426 4.368-.27 1.06-.188 3.014.188 4.65.954 4.203 2.578 7.523 4.71 9.666 1.47 1.483 3.037 2.272 4.92 2.519 1.295.165 4.297.047 5.91-.235zm51.976-6.063c1.59-.283 3.803-.942 4.591-1.366 2.65-1.413 4.356-4.297 5.204-8.759.353-1.907.4-6.487.059-7.71-.718-2.697-2.543-4.627-4.898-5.18-.765-.177-2.566-.119-6.333.235-8.253.765-10.784 1.283-15.505 3.143-2.684 1.06-3.155 1.39-3.461 2.39-.542 1.766-.118 3.708 1.507 6.887 2.496 4.909 4.862 7.675 7.793 9.1 1.437.695 3.367 1.224 5.392 1.483.918.106 4.568-.035 5.651-.223zM56.495 16.872c.632.168.82.062 1.739-.954 2.96-3.288 7.181-4.731 11.342-3.87.876.18 2.112.628 2.865 1.04.664.357 1.426.074 1.678-.627.228-.614.037-1.02-.708-1.5-1.77-1.138-4.765-1.711-7.56-1.453-3.688.349-7.396 2.301-9.557 5.05-.742.943-.829 1.205-.54 1.732.256.456.266.463.741.582zm-38.616-2.17c-.32.11-.586.398-.725.796-.227.642.058 1.084 1.114 1.744 3.483 2.188 9.557 3.834 14.032 3.807 1.319-.005 1.449-.026 1.737-.278.169-.15.34-.417.379-.592.116-.457-.186-1.159-.559-1.308-.175-.075-.962-.14-1.763-.158-3.93-.09-8.647-1.352-12.102-3.233-1.5-.823-1.734-.911-2.113-.778z" />
</svg>
